<svg width="32" height="32" viewBox="0 0 16 16" xmlns="http://www.w3.org/2000/svg">
    <title>
        Add maker to your favorites
    </title>
    <path d="M8 0C3.582 0 0 3.582 0 8s3.582 8 8 8c2.122 0 4.157-.843 5.657-2.343S16 10.122 16 8c0-4.418-3.582-8-8-8zm0 1.37c1.758 0 3.445.7 4.688 1.942C13.93 4.555 14.63 6.242 14.63 8c0 1.758-.7 3.445-1.942 4.688C11.445 13.93 9.758 14.63 8 14.63c-1.758 0-3.445-.7-4.688-1.942C2.07 11.445 1.37 9.758 1.37 8c0-1.758.7-3.445 1.942-4.688C4.555 2.07 6.242 1.37 8 1.37zm-.365 2.333c-.216 0-.39.174-.39.39v3.152H4.093c-.216 0-.39.174-.39.39v.73c0 .216.174.39.39.39h3.152v3.152c0 .216.174.39.39.39h.73c.216 0 .39-.174.39-.39V8.755h3.152c.216 0 .39-.174.39-.39v-.73c0-.216-.174-.39-.39-.39H8.755V4.093c0-.216-.174-.39-.39-.39h-.73z" fill-rule="nonzero" fill="#FFF"/>
</svg>