<svg id="abf92c9a-4277-4ec3-a078-2da045ede628" data-name="Layer 1" xmlns="http://www.w3.org/2000/svg" viewBox="0 0 28 25"><title>audio-file-icon</title><path id="40da0b17-672c-41fa-94ad-cf237fffd07b" data-name="audio file icon" d="M20,.31a1.78,1.78,0,0,0-2.28.22L12.05,6.25H2.86A2.86,2.86,0,0,0,0,9.11H0v6.76a2.87,2.87,0,0,0,2.86,2.87h9.19l5.71,5.72a1.8,1.8,0,0,0,2.28.22V.31Zm5.75,12.34a8.54,8.54,0,0,1-3.63,7l1.58,1.58a10.78,10.78,0,0,0,2.07-15.1,11,11,0,0,0-2.07-2.07L22.16,5.64a8.53,8.53,0,0,1,3.63,7Z" transform="translate(0 0)" style="fill:#999"/></svg>