<svg id="4c7e87a7-6074-4428-b920-2901fd98b810" data-name="Layer 1" xmlns="http://www.w3.org/2000/svg" viewBox="0 0 21 27.95"><title>download-arrow</title><path id="70e62899-91e4-4570-b9a2-547994c8db23" data-name="download arrow" d="M8.79,1.77V17.42L2.93,11.58A1.71,1.71,0,0,0,.51,14l8.78,8.75a1.71,1.71,0,0,0,2.42,0L20.5,14a1.71,1.71,0,0,0-2.42-2.42l-5.86,5.84V1.77a1.72,1.72,0,1,0-3.43,0Zm10.5,22.68H1.72a1.78,1.78,0,0,0,0,3.55H19.28a1.78,1.78,0,0,0,0-3.55Z" transform="translate(0 -0.05)" style="fill:#999"/></svg>