<svg xmlns="http://www.w3.org/2000/svg" width="36" height="36" viewBox="0 0 72 72">
  <metadata><?xpacket begin="﻿" id="W5M0MpCehiHzreSzNTczkc9d"?>
<x:xmpmeta xmlns:x="adobe:ns:meta/" x:xmptk="Adobe XMP Core 5.6-c138 79.159824, 2016/09/14-01:09:01        ">
   <rdf:RDF xmlns:rdf="http://www.w3.org/1999/02/22-rdf-syntax-ns#">
      <rdf:Description rdf:about=""/>
   </rdf:RDF>
</x:xmpmeta>
                                                                                                    
                                                                                                    
                                                                                                    
                                                                                                    
                                                                                                    
                                                                                                    
                                                                                                    
                                                                                                    
                                                                                                    
                                                                                                    
                                                                                                    
                                                                                                    
                                                                                                    
                                                                                                    
                                                                                                    
                                                                                                    
                                                                                                    
                                                                                                    
                                                                                                    
                                                                                                    
                           
<?xpacket end="w"?></metadata>
<defs>
    <style>
      .cls-1 {
        fill: #232323;
        fill-rule: evenodd;
        opacity: 0.6;
      }
    </style>
  </defs>
  <path id="Email" class="cls-1" d="M91,1032a36,36,0,1,1-36-36A36,36,0,0,1,91,1032Zm-15.956-12.67H34.954v0.28a2.36,2.36,0,0,0,.52,1.22L55,1039.4l19.525-18.57a2.326,2.326,0,0,0,.521-1.22v-0.28Zm0,17.88v-11.68l-6.138,5.84Zm-40.091,0,6.138-5.84-6.138-5.84v11.68Zm0,7.45H75.045v-1.53a2.388,2.388,0,0,0-.522-1.22l-8.349-7.94-8.77,8.34a3.492,3.492,0,0,1-4.81,0l-8.769-8.34-8.35,7.94a2.407,2.407,0,0,0-.521,1.22v1.53Z" transform="translate(-19 -996)"/>
</svg>
