<svg 
 xmlns="http://www.w3.org/2000/svg"
 xmlns:xlink="http://www.w3.org/1999/xlink"
 width="72px" height="72px">
<path fill-rule="evenodd"  opacity="0.6" fill="rgb(35, 35, 35)"
 d="M72.001,36.000 C72.001,55.882 55.883,72.001 36.000,72.001 C16.116,72.001 -0.002,55.882 -0.002,36.000 C-0.002,16.115 16.116,-0.002 36.000,-0.002 C55.883,-0.002 72.001,16.115 72.001,36.000 ZM56.045,23.334 L15.954,23.334 L15.954,23.613 C15.954,23.937 16.241,24.604 16.474,24.827 L35.999,43.402 L55.524,24.827 C55.758,24.607 56.044,23.937 56.045,23.613 L56.045,23.334 ZM56.045,41.209 L56.045,29.532 L49.907,35.372 L56.045,41.209 ZM15.954,41.209 L22.092,35.372 L15.954,29.532 L15.954,41.209 ZM15.954,48.664 L56.045,48.664 L56.045,47.130 C56.045,46.807 55.758,46.137 55.523,45.914 L47.174,37.972 L38.404,46.314 C37.758,46.929 36.904,47.268 36.000,47.268 C35.095,47.268 34.241,46.929 33.594,46.314 L24.825,37.972 L16.475,45.914 C16.242,46.137 15.955,46.807 15.954,47.130 L15.954,48.664 Z"/>
</svg>                                                                               
                                                                                                    
                                                                                                    
                                                                                                    
                                                                                                    
                                                                                                    
                                                                                                    
                                                                                                    
                                                                                                    
                                                                                                    
                                                                                                    
                                                                                                    
                                                                                                    
                                                                                                    
                                                                                                    
                                                                                                    
                                                                                                    
                                                                                                    
                                                                                                    
                                                                                                    
                           
<?xpacket end="w"?></metadata>
<defs>
    <style>
      .cls-1 {
        fill: #232323;
        fill-rule: evenodd;
        opacity: 0.6;
      }
    </style>
  </defs>
  <path id="Email" class="cls-1" d="M91,1032a36,36,0,1,1-36-36A36,36,0,0,1,91,1032Zm-15.956-12.67H34.954v0.28a2.36,2.36,0,0,0,.52,1.22L55,1039.4l19.525-18.57a2.326,2.326,0,0,0,.521-1.22v-0.28Zm0,17.88v-11.68l-6.138,5.84Zm-40.091,0,6.138-5.84-6.138-5.84v11.68Zm0,7.45H75.045v-1.53a2.388,2.388,0,0,0-.522-1.22l-8.349-7.94-8.77,8.34a3.492,3.492,0,0,1-4.81,0l-8.769-8.34-8.35,7.94a2.407,2.407,0,0,0-.521,1.22v1.53Z" transform="translate(-19 -996)"/>
</svg>
