<svg 
 xmlns="http://www.w3.org/2000/svg"
 xmlns:xlink="http://www.w3.org/1999/xlink"
 width="72px" height="72px">
  <path fill-rule="evenodd"  opacity="0.6" fill="rgb(35, 35, 35)"
  d="M72.001,36.000 C72.001,55.883 55.883,72.001 36.000,72.001 C16.116,72.001 -0.002,55.883 -0.002,36.000 C-0.002,16.116 16.116,-0.002 36.000,-0.002 C55.883,-0.002 72.001,16.116 72.001,36.000 ZM46.025,14.527 L39.445,14.527 C39.406,14.527 38.383,14.565 38.383,14.565 C34.703,14.601 32.881,16.766 32.881,16.766 C29.998,19.458 30.415,22.494 30.415,22.494 L30.415,28.336 L25.862,28.336 L25.862,35.921 L30.415,35.921 L30.415,57.471 L39.406,57.471 L39.406,35.962 L45.477,35.962 L46.008,28.298 L39.406,28.298 L39.406,23.782 C39.406,21.505 41.379,21.439 41.379,21.439 L46.025,21.439 L46.025,14.527 Z"/>
</svg>
                                                                                                    
                                                                                                    
                                                                                                    
                                                                                                    
                                                                                                    
                                                                                                    
                                                                                                    
                                                                                                    
                                                                                                    
                                                                                                    
                                                                                                    
                                                                                                    
                                                                                                    
                                                                                                    
                                                                                                    
                                                                                                    
                                                                                                    
                                                                                                    
                                                                                                    
                                                                                                    
                           
<?xpacket end="w"?></metadata>
<defs>
    <style>
      .cls-1 {
        fill: #232323;
        fill-rule: evenodd;
        opacity: 0.6;
      }
    </style>
  </defs>
  <path id="Facebook" class="cls-1" d="M91,858a36,36,0,1,1-36-36A36,36,0,0,1,91,858ZM65.025,836.527h-6.58c-0.039,0-1.062.038-1.062,0.038a7.485,7.485,0,0,0-5.5,2.2,7.067,7.067,0,0,0-2.466,5.728v5.842H44.862v7.585h4.554v21.55h8.991V857.962h6.071l0.531-7.664h-6.6v-4.516a2.122,2.122,0,0,1,1.972-2.343h4.647v-6.912Z" transform="translate(-19 -822)"/>
</svg>
