<svg xmlns="http://www.w3.org/2000/svg" width="36" height="36" viewBox="0 0 72 72">
  <metadata><?xpacket begin="﻿" id="W5M0MpCehiHzreSzNTczkc9d"?>
<x:xmpmeta xmlns:x="adobe:ns:meta/" x:xmptk="Adobe XMP Core 5.6-c138 79.159824, 2016/09/14-01:09:01        ">
   <rdf:RDF xmlns:rdf="http://www.w3.org/1999/02/22-rdf-syntax-ns#">
      <rdf:Description rdf:about=""/>
   </rdf:RDF>
</x:xmpmeta>
                                                                                                    
                                                                                                    
                                                                                                    
                                                                                                    
                                                                                                    
                                                                                                    
                                                                                                    
                                                                                                    
                                                                                                    
                                                                                                    
                                                                                                    
                                                                                                    
                                                                                                    
                                                                                                    
                                                                                                    
                                                                                                    
                                                                                                    
                                                                                                    
                                                                                                    
                                                                                                    
                           
<?xpacket end="w"?></metadata>
<defs>
    <style>
      .cls-1 {
        fill: #232323;
        fill-rule: evenodd;
        opacity: 0.6;
      }
    </style>
  </defs>
  <path id="Google_" data-name="Google+" class="cls-1" d="M91,1119a36,36,0,1,1-36-36A36,36,0,0,1,91,1119Zm-29.9,4.24c-1.235-.87-3.588-2.99-3.588-4.24,0-1.46.415-2.18,2.616-3.9a9.149,9.149,0,0,0,3.85-7.12c0-3.43-1.528-6.77-4.4-7.88h4.324l3.051-2.2H53.327c-6.115,0-11.871,4.63-11.871,9.99,0,5.48,4.17,9.91,10.389,9.91,0.433,0,.854-0.01,1.266-0.04a5.543,5.543,0,0,0-.693,2.55,5.271,5.271,0,0,0,1.856,3.76c-0.785,0-1.54.03-2.362,0.03-7.573,0-13.4,4.82-13.4,9.82,0,4.92,6.388,8.01,13.961,8.01,8.633,0,13.4-4.9,13.4-9.83C65.872,1128.15,64.7,1125.79,61.1,1123.24Zm-7.285-6.83c-3.514-.11-6.853-3.93-7.459-8.54s1.751-8.15,5.264-8.04,6.852,3.8,7.458,8.42S57.33,1116.51,53.818,1116.41Zm-1.376,23.34c-5.232,0-9.013-3.31-9.013-7.29,0-3.9,4.689-7.15,9.92-7.09a11.132,11.132,0,0,1,3.394.54c2.84,1.97,4.88,3.09,5.454,5.34a6.089,6.089,0,0,1,.164,1.41C62.362,1136.64,59.8,1139.75,52.442,1139.75Zm24.66-21.13h-5.11v-5.11H68.983v5.11H63.874v3.01h5.109l-0.092,5.11h3.19l-0.09-5.11H77.1v-3.01Z" transform="translate(-19 -1083)"/>
</svg>
