<svg 
 xmlns="http://www.w3.org/2000/svg"
 xmlns:xlink="http://www.w3.org/1999/xlink"
 width="72px" height="72px">
    <path fill-rule="evenodd"  opacity="0.6" fill="rgb(35, 35, 35)"
    d="M72.001,36.000 C72.001,55.883 55.884,72.001 36.000,72.001 C16.118,72.001 -0.002,55.883 -0.002,36.000 C-0.002,16.116 16.118,-0.002 36.000,-0.002 C55.884,-0.002 72.001,16.116 72.001,36.000 ZM42.102,40.240 C40.867,39.367 38.514,37.247 38.514,36.000 C38.514,34.539 38.928,33.818 41.130,32.097 C43.385,30.336 44.979,27.859 44.979,24.978 C44.979,21.547 43.451,18.205 40.584,17.101 L44.908,17.101 L47.960,14.896 L34.327,14.896 C28.212,14.896 22.456,19.528 22.456,24.892 C22.456,30.374 26.625,34.798 32.844,34.798 C33.277,34.798 33.698,34.791 34.110,34.760 C33.706,35.533 33.417,36.403 33.417,37.307 C33.417,38.830 34.236,40.066 35.273,41.073 C34.488,41.073 33.732,41.097 32.911,41.097 C25.338,41.097 19.509,45.919 19.509,50.920 C19.509,55.844 25.897,58.927 33.470,58.927 C42.102,58.927 46.872,54.029 46.872,49.103 C46.872,45.155 45.703,42.786 42.102,40.240 ZM34.818,33.408 C31.304,33.304 27.965,29.478 27.359,24.867 C26.753,20.252 29.110,16.722 32.622,16.827 C36.132,16.931 39.474,20.633 40.080,25.247 C40.686,29.859 38.330,33.514 34.818,33.408 ZM33.442,56.748 C28.210,56.748 24.429,53.437 24.429,49.456 C24.429,45.556 29.117,42.308 34.349,42.366 C35.573,42.377 36.709,42.574 37.744,42.908 C40.584,44.885 42.624,46.001 43.197,48.254 C43.307,48.710 43.362,49.180 43.362,49.659 C43.362,53.638 40.798,56.748 33.442,56.748 ZM58.102,35.622 L52.991,35.622 L52.991,30.510 L49.983,30.510 L49.983,35.622 L44.874,35.622 L44.874,38.628 L49.983,38.628 L49.891,43.741 L53.081,43.741 L52.991,38.628 L58.102,38.628 L58.102,35.622 Z"/>
</svg>
                                                                                                    
                                                                                                    
                                                                                                    
                                                                                                    
                                                                                                    
                                                                                                    
                                                                                                    
                                                                                                    
                                                                                                    
                                                                                                    
                                                                                                    
                                                                                                    
                                                                                                    
                                                                                                    
                                                                                                    
                                                                                                    
                                                                                                    
                                                                                                    
                                                                                                    
                                                                                                    
                           
<?xpacket end="w"?></metadata>
<defs>
    <style>
      .cls-1 {
        fill: #232323;
        fill-rule: evenodd;
        opacity: 0.6;
      }
    </style>
  </defs>
  <path id="Google_" data-name="Google+" class="cls-1" d="M91,1119a36,36,0,1,1-36-36A36,36,0,0,1,91,1119Zm-29.9,4.24c-1.235-.87-3.588-2.99-3.588-4.24,0-1.46.415-2.18,2.616-3.9a9.149,9.149,0,0,0,3.85-7.12c0-3.43-1.528-6.77-4.4-7.88h4.324l3.051-2.2H53.327c-6.115,0-11.871,4.63-11.871,9.99,0,5.48,4.17,9.91,10.389,9.91,0.433,0,.854-0.01,1.266-0.04a5.543,5.543,0,0,0-.693,2.55,5.271,5.271,0,0,0,1.856,3.76c-0.785,0-1.54.03-2.362,0.03-7.573,0-13.4,4.82-13.4,9.82,0,4.92,6.388,8.01,13.961,8.01,8.633,0,13.4-4.9,13.4-9.83C65.872,1128.15,64.7,1125.79,61.1,1123.24Zm-7.285-6.83c-3.514-.11-6.853-3.93-7.459-8.54s1.751-8.15,5.264-8.04,6.852,3.8,7.458,8.42S57.33,1116.51,53.818,1116.41Zm-1.376,23.34c-5.232,0-9.013-3.31-9.013-7.29,0-3.9,4.689-7.15,9.92-7.09a11.132,11.132,0,0,1,3.394.54c2.84,1.97,4.88,3.09,5.454,5.34a6.089,6.089,0,0,1,.164,1.41C62.362,1136.64,59.8,1139.75,52.442,1139.75Zm24.66-21.13h-5.11v-5.11H68.983v5.11H63.874v3.01h5.109l-0.092,5.11h3.19l-0.09-5.11H77.1v-3.01Z" transform="translate(-19 -1083)"/>
</svg>
