<svg xmlns="http://www.w3.org/2000/svg" viewBox="0 0 15 15"><title>instagram</title><path d="M3.15.28h9.36a2.83,2.83,0,0,1,2.82,2.81v9.37a2.84,2.84,0,0,1-2.82,2.82H3.15A2.84,2.84,0,0,1,.33,12.46V3.09A2.83,2.83,0,0,1,3.15.28Zm0,1.87a.92.92,0,0,0-.94.94v9.37a.91.91,0,0,0,.94.94h9.36a.92.92,0,0,0,1-.94V3.09a.93.93,0,0,0-1-.94Zm8.43.94a.94.94,0,1,1,0,1.87h0A.94.94,0,0,1,10.64,4h0A.94.94,0,0,1,11.58,3.09ZM7.83,4A3.75,3.75,0,1,1,4.08,7.78,3.76,3.76,0,0,1,7.83,4Zm0,1.87A1.88,1.88,0,1,0,9.71,7.78,1.86,1.86,0,0,0,7.83,5.9Z" transform="translate(-0.33 -0.28)" style="fill:#333"/></svg>