<svg id="b581c9c4-d391-44a3-897e-fada0118c759" data-name="Layer 1" xmlns="http://www.w3.org/2000/svg" viewBox="0 0 22.03 19.99"><title>link</title><path id="79757818-7098-4783-8147-f4b8b23598c7" data-name="bullet arrow copy 2" d="M1.68,11.63H16.49L11,17.2a1.65,1.65,0,0,0,0,2.31,1.59,1.59,0,0,0,2.25,0l0,0,8.28-8.36A1.64,1.64,0,0,0,22,10a1.6,1.6,0,0,0-.48-1.15L13.25.47A1.61,1.61,0,0,0,11,.47a1.65,1.65,0,0,0,0,2.31l5.52,5.58H1.68a1.64,1.64,0,1,0-.12,3.27Z" transform="translate(0.02 0)" style="fill:#999"/></svg>