<svg 
 xmlns="http://www.w3.org/2000/svg"
 xmlns:xlink="http://www.w3.org/1999/xlink"
 width="72px" height="72px">
<path fill-rule="evenodd"  opacity="0.6" fill="rgb(35, 35, 35)"
 d="M72.001,36.000 C72.001,55.883 55.885,72.002 36.000,72.002 C16.118,72.002 -0.002,55.883 -0.002,36.000 C-0.002,16.116 16.118,-0.002 36.000,-0.002 C55.885,-0.002 72.001,16.116 72.001,36.000 ZM63.755,34.582 C61.889,34.900 59.186,34.570 57.751,33.974 C60.729,33.727 62.745,32.373 63.522,30.535 C62.451,31.196 59.115,31.916 57.278,31.230 C57.184,30.797 57.086,30.387 56.983,30.015 C55.585,24.860 50.783,20.708 45.752,21.210 C46.157,21.045 46.569,20.892 46.986,20.752 C47.535,20.555 50.788,20.023 50.275,18.878 C49.841,17.867 45.872,19.637 45.124,19.870 C46.110,19.501 47.744,18.862 47.918,17.727 C46.407,17.934 44.923,18.650 43.775,19.691 C44.192,19.245 44.504,18.702 44.570,18.115 C40.538,20.696 38.183,25.892 36.277,30.936 C34.781,29.483 33.452,28.340 32.262,27.702 C28.924,25.913 24.931,24.042 18.666,21.714 C18.475,23.789 19.692,26.549 23.197,28.384 C22.439,28.281 21.048,28.510 19.940,28.775 C20.391,31.153 21.870,33.112 25.875,34.060 C24.043,34.179 23.096,34.598 22.240,35.494 C23.074,37.148 25.110,39.094 28.765,38.694 C24.698,40.449 27.106,43.699 30.415,43.215 C24.772,49.052 15.873,48.619 10.761,43.739 C24.104,61.942 53.110,54.503 57.432,36.972 C60.672,36.999 62.573,35.850 63.755,34.582 Z"/>
</svg>
                                                                                                    
                                                                                                    
                                                                                                    
                                                                                                    
                                                                                                    
                                                                                                    
                                                                                                    
                                                                                                    
                                                                                                    
                                                                                                    
                                                                                                    
                                                                                                    
                                                                                                    
                                                                                                    
                                                                                                    
                                                                                                    
                                                                                                    
                                                                                                    
                                                                                                    
                                                                                                    
                           
<?xpacket end="w"?></metadata>
<defs>
    <style>
      .cls-1 {
        fill: #232323;
        fill-rule: evenodd;
        opacity: 0.6;
      }
    </style>
  </defs>
  <path id="Twitter" class="cls-1" d="M91,945a36,36,0,1,1-36-36A36,36,0,0,1,91,945Zm-8.246-1.418a12.9,12.9,0,0,1-6-.608c2.978-.247,4.994-1.6,5.771-3.439-1.072.661-4.408,1.381-6.245,0.7-0.093-.433-0.191-0.843-0.294-1.215-1.4-5.155-6.2-9.307-11.231-8.8q0.607-.248,1.234-0.458c0.549-.2,3.8-0.729,3.289-1.874-0.434-1.011-4.4.759-5.151,0.992,0.986-.369,2.619-1.008,2.794-2.143a7.877,7.877,0,0,0-4.143,1.964,2.827,2.827,0,0,0,.795-1.576c-4.032,2.581-6.387,7.777-8.293,12.821a19.877,19.877,0,0,0-4.015-3.234,105.058,105.058,0,0,0-13.6-5.988c-0.191,2.075,1.025,4.835,4.53,6.67a11.06,11.06,0,0,0-3.257.391c0.451,2.378,1.93,4.337,5.936,5.285a4.85,4.85,0,0,0-3.635,1.434,6.152,6.152,0,0,0,6.525,3.2c-4.067,1.755-1.658,5,1.651,4.521a14.041,14.041,0,0,1-19.654.524c13.343,18.2,42.349,10.764,46.671-6.767A8.029,8.029,0,0,0,82.755,943.582Z" transform="translate(-19 -909)"/>
</svg>
