<svg xmlns="http://www.w3.org/2000/svg" viewBox="212.2 331.4 187.6 129.3">
  <title>
    Twitter Icon
  </title>
  <path fill="currentColor" d="M399.8 391c-7.2 1-14.4.3-21.2-2.1 10.6-.9 17.7-5.7 20.4-12.2-3.8 2.3-15.6 4.9-22.1 2.5-.3-1.5-.7-3-1-4.2-5-18.3-22-32.9-39.8-31.2 1.4-.6 2.9-1.1 4.4-1.6 2-.7 13.5-2.6 11.6-6.6-1.5-3.6-15.6 2.7-18.2 3.5 3.5-1.3 9.3-3.6 9.9-7.6-5.5.8-10.6 3.2-14.7 6.9 1.5-1.5 2.5-3.5 2.8-5.6-14.3 9.1-22.6 27.6-29.3 45.4-4.2-4.4-9-8.3-14.2-11.5-15.5-8.2-31.6-15.3-48.1-21.2-.7 7.4 3.6 17.1 16 23.6-3.9-.1-7.8.3-11.5 1.4 1.6 8.5 6.8 15.3 21 18.7-6.4.4-9.8 1.9-12.9 5.1 3 5.8 10.2 12.8 23.1 11.3-14.4 6.2-5.9 17.7 5.8 16-18.8 19.5-49.7 20.3-69.6 1.8 47.2 64.4 149.9 38.1 165.2-23.9 11.5 0 18.2-4 22.4-8.5z"/>
</svg>
