<svg xmlns="http://www.w3.org/2000/svg" width="36" height="36" viewBox="0 0 72 72">
  <metadata><?xpacket begin="﻿" id="W5M0MpCehiHzreSzNTczkc9d"?>
<x:xmpmeta xmlns:x="adobe:ns:meta/" x:xmptk="Adobe XMP Core 5.6-c138 79.159824, 2016/09/14-01:09:01        ">
   <rdf:RDF xmlns:rdf="http://www.w3.org/1999/02/22-rdf-syntax-ns#">
      <rdf:Description rdf:about=""/>
   </rdf:RDF>
</x:xmpmeta>
                                                                                                    
                                                                                                    
                                                                                                    
                                                                                                    
                                                                                                    
                                                                                                    
                                                                                                    
                                                                                                    
                                                                                                    
                                                                                                    
                                                                                                    
                                                                                                    
                                                                                                    
                                                                                                    
                                                                                                    
                                                                                                    
                                                                                                    
                                                                                                    
                                                                                                    
                                                                                                    
                           
<?xpacket end="w"?></metadata>
<defs>
    <style>
      .cls-1 {
        fill: #232323;
        fill-rule: evenodd;
        opacity: 0.6;
      }
    </style>
  </defs>
  <path id="Twitter" class="cls-1" d="M91,945a36,36,0,1,1-36-36A36,36,0,0,1,91,945Zm-8.246-1.418a12.9,12.9,0,0,1-6-.608c2.978-.247,4.994-1.6,5.771-3.439-1.072.661-4.408,1.381-6.245,0.7-0.093-.433-0.191-0.843-0.294-1.215-1.4-5.155-6.2-9.307-11.231-8.8q0.607-.248,1.234-0.458c0.549-.2,3.8-0.729,3.289-1.874-0.434-1.011-4.4.759-5.151,0.992,0.986-.369,2.619-1.008,2.794-2.143a7.877,7.877,0,0,0-4.143,1.964,2.827,2.827,0,0,0,.795-1.576c-4.032,2.581-6.387,7.777-8.293,12.821a19.877,19.877,0,0,0-4.015-3.234,105.058,105.058,0,0,0-13.6-5.988c-0.191,2.075,1.025,4.835,4.53,6.67a11.06,11.06,0,0,0-3.257.391c0.451,2.378,1.93,4.337,5.936,5.285a4.85,4.85,0,0,0-3.635,1.434,6.152,6.152,0,0,0,6.525,3.2c-4.067,1.755-1.658,5,1.651,4.521a14.041,14.041,0,0,1-19.654.524c13.343,18.2,42.349,10.764,46.671-6.767A8.029,8.029,0,0,0,82.755,943.582Z" transform="translate(-19 -909)"/>
</svg>
