<svg xmlns="http://www.w3.org/2000/svg" viewBox="221.4 336.5 169 118.8">
  <title>
    YouTube Icon
  </title>
  <path fill="currentColor" d="M388.9 362.2s-1.7-11.6-6.7-16.8c-4.5-4.5-10.6-7.1-17-7.2-23.7-1.8-59.2-1.8-59.2-1.8s-35.5 0-59.1 1.7c-6.4 0-12.5 2.6-17 7.2-5.1 5.1-6.7 16.8-6.7 16.8-1.1 9.1-1.6 18.2-1.7 27.3v12.8c.1 9.1.6 18.3 1.7 27.3 0 0 1.7 11.6 6.7 16.8 6.4 6.7 14.9 6.5 18.6 7.2 13.5 1.3 57.4 1.7 57.4 1.7s35.5 0 59.2-1.8c6.4 0 12.5-2.6 17-7.2 5.1-5.1 6.7-16.8 6.7-16.8 1-9.1 1.6-18.2 1.7-27.3v-12.8c-.1-8.9-.6-18-1.6-27.1zm-100.3 55.7v-47.4l45.7 23.8-45.7 23.6z"/>
</svg>